<?xml version="1.0" encoding="UTF-8"?><svg id="Layer_1" xmlns="http://www.w3.org/2000/svg" viewBox="0 0 3708.24 2512.77"><defs><style>.cls-1{fill:#231f20;fill-rule:evenodd;stroke-width:0px;}</style></defs><path class="cls-1" d="m3406.75,2200.73l30.23,118.91h156.2l115.06,193.12h-817.77l115.11-193.12h156.19l30.19-118.91c-130.28,15.38-254.68-77.97-253.63-213.67,0,0,0-928.44,0-928.44,8.75-274.9,326.01-206.76,508.41-213.68,117.53,0,213.68,96.15,213.68,213.68,0,0,0,928.44,0,928.44.97,135.56-123.34,229.18-253.68,213.66Zm-2636.79-213.66v-928.44c0-117.54-96.14-213.69-213.68-213.68-182.4,6.92-499.67-61.22-508.42,213.68,0,0,0,928.44,0,928.44-1.05,135.72,123.38,229.06,253.67,213.67l-30.23,118.91H115.11L0,2512.77h817.78l-115.07-193.12h-156.19l-30.23-118.91c130.34,15.52,254.65-78.1,253.68-213.66ZM1049.6,208.83v2095.11c0,114.86,93.95,208.83,208.84,208.83h1191.42c114.83,0,208.78-93.96,208.78-208.83V208.83c0-114.85-93.95-208.83-208.78-208.83h-1191.42c-114.89,0-208.84,93.97-208.84,208.83Zm804.59,2126.4c785.41-14.58,785.27-1181.04-.03-1195.52-785.44,14.56-785.34,1181.09.03,1195.52Zm-.05-373.78c294.27-5.45,294.22-442.53,0-447.93-294.32,5.46-294.27,442.51,0,447.93Zm0-1092.92c390.21-7.23,390.14-586.84-.01-594.01-390.25,7.25-390.19,586.82.01,594.01Zm0-185.72c146.22-2.7,146.17-219.86,0-222.54-146.19,2.71-146.19,219.86,0,222.54Zm1216.11,420.58s0,825.52,0,825.52c.03,63.81,52.05,115.8,115.85,115.82,0,0,238.88,0,238.88,0,63.77-.02,115.8-52.03,115.8-115.82,0,0,0-825.52,0-825.52,0-31.91-13.01-60.88-33.99-81.83-20.97-20.95-49.93-33.99-81.81-33.99,0,0-238.88,0-238.88,0-63.8.03-115.81,51.99-115.85,115.83Zm376.39,0s0,825.52,0,825.52c0,5.91-2.48,11.36-6.38,15.3,1.76,12.66-247.18,4.5-254.17,6.39-11.83,0-21.66-9.87-21.67-21.69,0,0,0-825.52,0-825.52,0-5.91,2.48-11.34,6.41-15.31-1.77-12.65,247.16-4.49,254.14-6.38,11.8,0,21.69,9.85,21.67,21.69Zm-3266.81,0s0,825.52,0,825.52c.05,63.85,51.99,115.81,115.85,115.82,0,0,238.83,0,238.83,0,63.78-.02,115.8-52.03,115.8-115.82,0,0,0-825.52,0-825.52,0-31.91-13.01-60.88-33.98-81.83-20.98-20.95-49.93-33.99-81.82-33.99,0,0-238.83,0-238.83,0-63.86.02-115.8,51.94-115.85,115.83Zm376.35,0v825.52c0,5.91-2.43,11.36-6.37,15.3,1.64,12.7-247.06,4.47-254.13,6.39-11.88,0-21.7-9.84-21.71-21.69,0,0,0-825.52,0-825.52,0-5.91,2.47-11.34,6.4-15.31-1.44-12.74,246.94-4.41,254.14-6.38,11.83,0,21.71,9.85,21.67,21.69Z"/></svg>